<svg xmlns="http://www.w3.org/2000/svg" viewBox="0 0 96 96">
  <g fill="none" stroke-linecap="round" stroke-linejoin="round">
    <path d="M24 61 C24 49 34 40 47 42 C58 44 66 53 65 64 C64 75 54 82 42 80 C31 78 24 71 24 61 Z" fill="#151D1D" stroke="#8C7A5B" stroke-width="5" opacity="0.82"/>
    <path d="M58 37 C66 31 78 36 80 46 C82 56 74 64 64 62 C55 60 51 44 58 37 Z" fill="#243236" stroke="#395856" stroke-width="5" opacity="0.74"/>
    <path d="M33 54 C39 49 47 49 54 53 M61 43 C66 41 71 43 74 47" stroke="#E6DFC9" stroke-width="2" opacity="0.42"/>
    <path d="M22 77 L73 77 M33 84 L59 84" stroke="#0B1216" stroke-width="7" opacity="0.50"/>
    <path d="M30 35 L20 25 M75 68 L86 75" stroke="#C9B26B" stroke-width="4" opacity="0.42"/>
  </g>
</svg>
