<svg xmlns="http://www.w3.org/2000/svg" viewBox="0 0 128 128">
  <g fill="none" stroke-linecap="round" stroke-linejoin="round">
    <path d="M32 96 L64 23 L96 96 Z" fill="#111A1E" stroke="#8C7A5B" stroke-width="7"/>
    <path d="M46 88 L64 44 L82 88 Z" fill="#2D3E34" stroke="#C9B26B" stroke-width="4" opacity="0.82"/>
    <path d="M33 99 L95 99 M44 109 L84 109" stroke="#0B1216" stroke-width="9" opacity="0.64"/>
    <path d="M64 46 C74 47 81 54 81 64 C81 74 74 81 64 81 C54 81 47 74 47 64 C47 54 54 47 64 46 Z" fill="#151D1D" stroke="#E6DFC9" stroke-width="4"/>
    <path d="M64 55 L64 86 M55 68 L73 68 M58 80 L70 80" stroke="#C9B26B" stroke-width="5"/>
    <path d="M41 74 L30 68 M87 74 L98 68 M52 36 L44 26 M76 36 L84 26" stroke="#B6543C" stroke-width="5" opacity="0.72"/>
  </g>
</svg>
