<svg xmlns="http://www.w3.org/2000/svg" width="72" height="72" viewBox="0 0 72 72">
  <g stroke-linecap="round" stroke-linejoin="round">
    <path d="M40 9c4 0 8 3 8 8s-4 8-8 8-8-3-8-8 4-8 8-8Z" fill="#E6DFC9"/>
    <path d="M27 31c5-8 14-12 22-10l4 18c1 5-2 9-7 10l-12 2c-6 1-10-4-9-9l2-11Z" fill="#395856"/>
    <path d="M33 25c3-3 7-5 11-5 3 0 7 1 10 4l-7 8H32Z" fill="#1A2328"/>
    <path d="M33 52 24 65" stroke="#DCC488" stroke-width="5"/>
    <path d="M42 52 49 63" stroke="#DCC488" stroke-width="5"/>
    <path d="M28 34 18 43" stroke="#8C7A5B" stroke-width="5"/>
    <path d="M49 33 58 48" stroke="#8C7A5B" stroke-width="5"/>
    <circle cx="57" cy="46" r="4" fill="#C9B26B"/>
    <circle cx="57" cy="46" r="2" fill="#F5ECD0"/>
  </g>
</svg>
