<svg xmlns="http://www.w3.org/2000/svg" width="128" height="128" viewBox="0 0 128 128">
  <defs>
    <linearGradient id="settingsFrame" x1="64" y1="16" x2="64" y2="112" gradientUnits="userSpaceOnUse">
      <stop stop-color="#B59B68"/>
      <stop offset="1" stop-color="#766041"/>
    </linearGradient>
    <linearGradient id="settingsCore" x1="64" y1="28" x2="64" y2="100" gradientUnits="userSpaceOnUse">
      <stop stop-color="#203231"/>
      <stop offset="1" stop-color="#12191B"/>
    </linearGradient>
  </defs>
  <g stroke-linecap="round" stroke-linejoin="round">
    <circle cx="64" cy="64" r="47" fill="url(#settingsFrame)"/>
    <circle cx="64" cy="64" r="35" fill="url(#settingsCore)"/>
    <g fill="#D9C695">
      <rect x="58" y="16" width="12" height="18" rx="4"/>
      <rect x="58" y="94" width="12" height="18" rx="4"/>
      <rect x="94" y="58" width="18" height="12" rx="4"/>
      <rect x="16" y="58" width="18" height="12" rx="4"/>
      <rect x="85.2" y="23.6" width="12" height="18" rx="4" transform="rotate(45 91.2 32.6)"/>
      <rect x="30.8" y="78" width="12" height="18" rx="4" transform="rotate(45 36.8 87)"/>
      <rect x="78" y="30.8" width="12" height="18" rx="4" transform="rotate(135 84 39.8)"/>
      <rect x="23.6" y="85.2" width="12" height="18" rx="4" transform="rotate(135 29.6 94.2)"/>
    </g>
    <circle cx="64" cy="64" r="18" fill="#294240"/>
    <circle cx="64" cy="64" r="8" fill="#F0E6C8"/>
  </g>
</svg>
