<svg width="720" height="960" viewBox="0 0 720 960" fill="none" xmlns="http://www.w3.org/2000/svg">
<defs>
<linearGradient id="frameOuter" x1="360" y1="8" x2="360" y2="952" gradientUnits="userSpaceOnUse">
<stop stop-color="#172025"/>
<stop offset="1" stop-color="#090D11"/>
</linearGradient>
<linearGradient id="frameInner" x1="360" y1="26" x2="360" y2="934" gradientUnits="userSpaceOnUse">
<stop stop-color="#0F1619"/>
<stop offset="1" stop-color="#0A1012"/>
</linearGradient>
<linearGradient id="boardField" x1="360" y1="54" x2="360" y2="906" gradientUnits="userSpaceOnUse">
<stop stop-color="#152226"/>
<stop offset="0.42" stop-color="#10181C"/>
<stop offset="1" stop-color="#0A1215"/>
</linearGradient>
<radialGradient id="mistCenter" cx="0" cy="0" r="1" gradientUnits="userSpaceOnUse" gradientTransform="translate(360 534) rotate(90) scale(330 244)">
<stop stop-color="#4E675F" stop-opacity="0.18"/>
<stop offset="0.65" stop-color="#22312D" stop-opacity="0.06"/>
<stop offset="1" stop-color="#13201F" stop-opacity="0"/>
</radialGradient>
<linearGradient id="guideLane" x1="360" y1="804" x2="360" y2="228" gradientUnits="userSpaceOnUse">
<stop stop-color="#C6B173" stop-opacity="0.19"/>
<stop offset="0.45" stop-color="#DCCB97" stop-opacity="0.08"/>
<stop offset="1" stop-color="#ECE2BE" stop-opacity="0"/>
</linearGradient>
<radialGradient id="northHint" cx="0" cy="0" r="1" gradientUnits="userSpaceOnUse" gradientTransform="translate(360 196) rotate(90) scale(92 148)">
<stop stop-color="#D7C88E" stop-opacity="0.18"/>
<stop offset="1" stop-color="#D7C88E" stop-opacity="0"/>
</radialGradient>
</defs>
<rect x="8" y="8" width="704" height="944" rx="42" fill="url(#frameOuter)" stroke="#8B7754" stroke-width="5"/>
<rect x="22" y="22" width="676" height="916" rx="34" fill="url(#frameInner)" stroke="#213036" stroke-opacity="0.55" stroke-width="2"/>
<rect x="38" y="38" width="644" height="884" rx="28" fill="url(#boardField)"/>
<rect x="52" y="52" width="616" height="856" rx="24" fill="#132024" stroke="#203136" stroke-opacity="0.45"/>
<ellipse cx="360" cy="534" rx="286" ry="320" fill="url(#mistCenter)"/>
<path d="M360 834C330 774 323 680 330 590C338 498 344 418 360 354C376 418 382 498 390 590C397 680 390 774 360 834Z" fill="url(#guideLane)"/>
<ellipse cx="360" cy="196" rx="132" ry="88" fill="url(#northHint)"/>
<ellipse cx="248" cy="678" rx="112" ry="80" fill="#263734" fill-opacity="0.12"/>
<ellipse cx="472" cy="678" rx="112" ry="80" fill="#263734" fill-opacity="0.12"/>
<ellipse cx="228" cy="304" rx="94" ry="68" fill="#314541" fill-opacity="0.08"/>
<ellipse cx="492" cy="304" rx="94" ry="68" fill="#314541" fill-opacity="0.08"/>
<path d="M68 780C122 746 170 722 214 706" stroke="#0A0D0F" stroke-opacity="0.28" stroke-width="8" stroke-linecap="round"/>
<path d="M652 780C598 746 550 722 506 706" stroke="#0A0D0F" stroke-opacity="0.28" stroke-width="8" stroke-linecap="round"/>
</svg>
