<svg xmlns="http://www.w3.org/2000/svg" width="128" height="128" viewBox="0 0 128 128">
  <g stroke-linejoin="round" stroke-linecap="round">
  <path d="M48 16H80V30L72 40V50C84 60 90 74 90 88 90 104 78 114 64 114 50 114 38 104 38 88 38 74 44 60 56 50V40L48 30Z" fill="#6f8653"/>
  <path d="M56 16H72V28H56Z" fill="#f0e3b2"/>
  <path d="M50 76C55 68 60 66 64 66 72 66 77 70 80 76 76 90 72 96 64 96 56 96 52 90 50 76Z" fill="#e2c56d"/>
  <path d="M44 112C54 118 74 118 84 112" stroke="#22311f" stroke-width="8" stroke-linecap="round" fill="none"/>
  </g>
</svg>

