<svg xmlns="http://www.w3.org/2000/svg" width="128" height="128" viewBox="0 0 128 128">
  <g stroke-linecap="round" stroke-linejoin="round">
    <path d="M84 22a24 24 0 1 0 18 42 28 28 0 1 1-18-42Z" fill="#E6DFC9"/>
    <path d="M62 53c10 0 18 8 18 19 0 15-18 24-18 30 0-6-18-15-18-30 0-11 8-19 18-19Z" fill="#B6543C" stroke="#F2E7C8" stroke-width="4"/>
    <path d="M63 60c6 0 11 5 11 11 0 8-11 13-11 18 0-5-11-10-11-18 0-6 5-11 11-11Z" fill="#D7BC74"/>
    <path d="M36 98h56" stroke="#8C7A5B" stroke-width="8"/>
    <path d="M48 106 80 90" stroke="#395856" stroke-width="6"/>
    <path d="M58 98 50 112M70 98 78 112" stroke="#8C7A5B" stroke-width="6"/>
  </g>
</svg>
